<svg width="1002" height="181" viewBox="0 0 1002 181" fill="none" xmlns="http://www.w3.org/2000/svg">
<path d="M25.047 45.9061L50.0005 20.7511L59.7857 30.6425L15.0109 75.8338C14.8154 74.3046 14.7164 72.7643 14.7144 71.2224C14.7163 66.5556 15.6301 61.9351 17.4032 57.6262C19.1764 53.3174 21.774 49.4049 25.047 46.1136M79.3562 51.555L29.9054 101.45L25.8682 97.2305H25.7313L25.0014 96.5157C23.3082 94.8406 21.7803 93.0027 20.4395 91.0282L69.8903 40.8797L74.84 45.883C76.4813 47.5456 77.9559 49.3682 79.2422 51.3244M74.8628 96.3082L49.9321 121.671L40.0556 111.687L84.8305 66.4035C85.5658 71.8383 85.0487 77.3712 83.3197 82.5706C81.5906 87.77 78.6964 92.4952 74.8628 96.3774M15.5583 107.629L49.7724 142.214L84.648 106.96L86.7465 104.793C94.8872 95.6206 99.418 83.7491 99.4811 71.4264C99.5441 59.1038 95.135 47.1856 87.0886 37.9284L49.7268 0L14.5547 35.6458C5.23503 45.0751 0 57.8588 0 71.1878C0 84.5168 5.23503 97.3006 14.5547 106.73L15.5127 107.652" fill="#2E7F3E"/>
<path d="M98.2213 103.429C96.313 111.373 92.3812 118.717 86.7917 124.778L84.6886 126.879L49.8052 161.059L15.5162 127.527L14.579 126.633C8.04507 120.266 3.4676 112.234 1.36626 103.451H0.817632C-0.635446 111.188 -0.146485 119.154 2.24252 126.665C4.63153 134.176 8.84918 141.008 14.5332 146.574L15.5162 147.468L49.8052 181L84.62 146.819L86.7231 144.718C91.8044 139.184 95.5235 132.585 97.5957 125.429C99.6679 118.272 100.038 110.747 98.6785 103.429H98.2213Z" fill="#2E7F3E"/>
<path d="M137.253 33.2512H144.628V52.1049H144.771L161.143 33.2512H169.771L151.007 54.312L170.825 76.3568H161.855L144.771 57.184H144.628V76.3568H137.253V33.2512Z" fill="#2E7F3E"/>
<path d="M194.231 77.8196C189.39 90.2647 184.066 91.8868 178.257 91.8868C175.867 91.9254 173.497 91.4809 171.309 90.5838L173.131 85.2654C174.632 85.9791 176.288 86.3612 177.972 86.3822C181.902 86.3822 185.062 83.9092 187.653 76.4369L172.79 45.5636H180.62L190.928 68.4593L199.128 45.5636H206.76L194.231 77.8196Z" fill="#2E7F3E"/>
<path d="M234.095 61.7314C234.095 56.7587 232.329 52.1849 226.464 52.1849C223.36 52.3087 220.342 53.169 217.694 54.6845V57.1576C217.694 67.0232 220.854 71.5438 226.236 71.5438C232.13 71.464 234.294 67.0498 234.294 61.7314M210.29 56.8651C210.29 49.4193 212.397 42.1331 215.53 38.9953C219.601 34.4215 224.442 33.6769 238.935 30.1667V36.4424C226.179 39.6335 222.477 40.2983 220.313 43.1702C219.013 45.0446 218.195 47.1742 217.921 49.3927C220.855 47.7552 224.187 46.8403 227.603 46.7335C237.284 46.7335 241.47 53.1422 241.47 61.2527C241.47 70.3472 236.145 77.2079 225.695 77.2079C216.526 77.2079 210.148 71.5172 210.148 56.9182" fill="#2E7F3E"/>
<path d="M261.914 61.7313C260.076 61.6796 258.252 62.035 256.589 62.7684C255.844 63.1513 255.231 63.7251 254.822 64.4223C254.414 65.1194 254.226 65.911 254.283 66.704C254.252 67.3048 254.349 67.9053 254.567 68.4712C254.785 69.0371 255.121 69.5572 255.555 70.0018C255.989 70.4464 256.512 70.8068 257.095 71.0622C257.678 71.3177 258.309 71.4632 258.953 71.4905H259.665C262.373 71.3679 264.938 70.317 266.869 68.5388V61.7313H261.914ZM267.381 73.1126C264.83 75.5248 261.359 76.8925 257.728 76.9153C256.395 76.9946 255.058 76.8277 253.794 76.4242C252.53 76.0206 251.364 75.3883 250.361 74.5634C249.359 73.7386 248.541 72.7373 247.953 71.6168C247.365 70.4964 247.02 69.2788 246.937 68.0336C246.937 67.7322 246.937 67.422 246.937 67.1029C246.856 65.351 247.339 63.6168 248.324 62.1237C249.308 60.6307 250.749 59.4474 252.461 58.7264C255.147 57.6104 258.063 57.0567 261.003 57.1043L266.954 56.9181V55.7215C267.043 54.9032 266.927 54.077 266.615 53.3076C266.304 52.5383 265.806 51.8469 265.16 51.2877C264.515 50.7284 263.739 50.3167 262.894 50.0848C262.049 49.8529 261.158 49.8071 260.291 49.951C257.185 49.9747 254.14 50.7636 251.464 52.238L248.93 47.7173C252.723 45.6796 257.026 44.6154 261.402 44.6327C269.602 44.6327 274.215 48.1694 274.215 55.6949V67.6081C274.059 70.546 274.269 73.4909 274.841 76.3834H268.606L267.381 73.1126Z" fill="#2E7F3E"/>
<path d="M282.785 45.4036H290.075V56.9445H304.084V45.4036H311.374V76.3566H304.084V62.8745H290.075V76.3566H282.785V45.4036Z" fill="#2E7F3E"/>
<path d="M318.407 61.1195C318.214 56.9381 319.806 52.8561 322.833 49.7698C325.86 46.6836 330.075 44.8455 334.552 44.6591H335.491C338.556 44.5858 341.585 45.2838 344.261 46.6801V52.5037C341.892 50.9844 339.077 50.1857 336.203 50.2168C329.768 50.2168 325.839 54.7906 325.839 60.8536C325.839 67.5814 329.768 71.4904 335.776 71.4904C338.55 71.4599 341.264 70.7344 343.635 69.3896L345.742 74.0964C342.482 76.0519 338.682 77.0776 334.808 77.0481C324.244 77.0481 318.35 70.0544 318.35 61.0929" fill="#2E7F3E"/>
<path d="M351.267 45.4303H358.556V57.9817H362.429C366.785 57.9817 366.7 51.254 369.376 47.3449C370.006 46.4322 370.883 45.691 371.918 45.196C372.953 44.7011 374.109 44.47 375.271 44.5262C376.31 44.5274 377.345 44.6617 378.346 44.9251V50.7487C377.778 50.5657 377.181 50.4758 376.58 50.4828C376.114 50.4718 375.652 50.568 375.235 50.7627C374.818 50.9574 374.459 51.2448 374.189 51.5997C372.452 53.8866 372.224 58.7795 369.149 60.4814C370.069 60.8337 370.897 61.3678 371.575 62.0472C372.253 62.7266 372.766 63.535 373.078 64.417L379.172 76.144H371.341L366.785 66.0657C365.675 63.8586 364.678 62.981 363.71 62.981H358.442V76.277H351.153V45.4303H351.267Z" fill="#2E7F3E"/>
<path d="M385.037 45.4304H392.184V60.4814C392.244 62.6654 392.149 64.8508 391.899 67.023C392.952 65.4009 394.433 63.2204 396.398 60.5346L407.787 45.4304H414.792V76.3834H407.645V61.3323C407.622 59.1487 407.717 56.9654 407.93 54.7907H407.731C406.734 56.3597 405.282 58.5934 403.317 61.2792L391.927 76.3834H384.923V45.4304H385.037Z" fill="#2E7F3E"/>
<path d="M427.435 30.4592H433.614C433.537 31.1518 433.617 31.8518 433.848 32.5138C434.079 33.1759 434.456 33.7853 434.956 34.3024C435.455 34.8196 436.065 35.2331 436.746 35.5162C437.428 35.7992 438.165 35.9454 438.911 35.9454C439.656 35.9454 440.393 35.7992 441.075 35.5162C441.756 35.2331 442.366 34.8196 442.865 34.3024C443.365 33.7853 443.742 33.1759 443.973 32.5138C444.204 31.8518 444.284 31.1518 444.207 30.4592H450.3C450.434 31.8803 450.23 33.3116 449.703 34.6505C449.175 35.9895 448.337 37.2029 447.249 38.2041C446.161 39.2053 444.849 39.9694 443.407 40.4417C441.966 40.9141 440.43 41.083 438.911 40.9364C431.336 40.9364 427.293 36.5487 427.521 30.4592M423.734 45.4304H430.767V60.4815C430.828 62.6655 430.732 64.8509 430.482 67.0231C431.536 65.401 433.016 63.2204 434.981 60.5347L446.371 45.4304H453.546V76.3835H446.399V61.3324C446.376 59.1488 446.471 56.9654 446.684 54.7908H446.485C445.517 56.3597 444.036 58.5935 442.071 61.2792L430.681 76.3835H423.677V45.4304H423.734Z" fill="#2E7F3E"/>
<path d="M477.664 45.4036H500.927L498.763 51.4399H484.953V76.3566H477.664V45.4036Z" fill="#2E7F3E"/>
<path d="M529.43 60.8006C529.43 54.6579 526.355 50.1638 520.888 50.1638C515.421 50.1638 512.346 54.6047 512.346 60.8006C512.346 66.9965 515.506 71.4374 520.888 71.4374C526.27 71.4374 529.43 66.9965 529.43 60.8006ZM504.629 60.8006C504.629 51.5732 511.093 44.6327 520.803 44.6327C530.512 44.6327 537.061 51.4668 537.061 60.8006C537.061 70.1344 530.626 77.0217 520.945 77.0217C511.264 77.0217 504.8 70.028 504.8 60.8006" fill="#2E7F3E"/>
<path d="M542.329 61.1197C542.135 56.9383 543.727 52.8562 546.754 49.77C549.781 46.6837 553.996 44.8456 558.473 44.6593H559.413C562.477 44.5937 565.504 45.2913 568.183 46.6802V52.5039C565.813 50.9846 562.999 50.1859 560.125 50.217C553.661 50.217 549.76 54.7908 549.76 60.8537C549.76 67.5815 553.661 71.4905 559.698 71.4905C562.472 71.4614 565.186 70.7358 567.557 69.3898L569.664 74.0965C566.412 76.0471 562.623 77.0726 558.758 77.0482C548.166 77.0482 542.3 70.0546 542.3 61.0931" fill="#2E7F3E"/>
<path d="M592.928 77.8196C588.087 90.2647 582.763 91.8868 576.954 91.8868C574.564 91.9254 572.194 91.4809 570.006 90.5838L571.828 85.2654C573.32 85.976 574.966 86.3581 576.641 86.3822C580.57 86.3822 583.731 83.9092 586.322 76.4369L571.487 45.5636H579.317L589.625 68.4593L597.826 45.5636H605.4L592.928 77.8196Z" fill="#2E7F3E"/>
<path d="M631.311 51.0945H624.762C623.883 58.0134 621.499 64.6917 617.757 70.7193H631.339V51.0945H631.311ZM607.706 70.8523H609.813C614.568 65.3477 616.903 58.7529 619.409 45.457H638.629V70.8523H643.327V87.2595H636.55V76.3834H614.54V87.2329H607.763V70.8257L607.706 70.8523Z" fill="#2E7F3E"/>
<path d="M663.287 61.7313C661.45 61.6806 659.625 62.036 657.963 62.7684C657.217 63.1513 656.604 63.7251 656.195 64.4223C655.787 65.1194 655.6 65.911 655.656 66.704C655.626 67.3048 655.722 67.9053 655.94 68.4712C656.159 69.0371 656.494 69.5572 656.928 70.0018C657.362 70.4464 657.885 70.8068 658.468 71.0622C659.051 71.3177 659.683 71.4632 660.326 71.4905H661.038C663.746 71.3679 666.311 70.317 668.242 68.5388V61.7313H663.287ZM668.754 73.1126C667.488 74.3102 665.981 75.2625 664.32 75.915C662.658 76.5676 660.875 76.9075 659.073 76.9153C657.74 76.9946 656.403 76.8277 655.139 76.4242C653.875 76.0206 652.708 75.3883 651.706 74.5634C650.704 73.7386 649.885 72.7373 649.298 71.6168C648.71 70.4964 648.365 69.2788 648.281 68.0336C648.281 67.7322 648.281 67.422 648.281 67.1029C648.201 65.351 648.684 63.6168 649.668 62.1237C650.653 60.6307 652.094 59.4474 653.805 58.7264C656.492 57.6095 659.408 57.0558 662.348 57.1043L668.299 56.9181V55.7215C668.387 54.9032 668.271 54.077 667.96 53.3076C667.649 52.5383 667.151 51.8469 666.505 51.2877C665.859 50.7284 665.084 50.3167 664.239 50.0848C663.394 49.8529 662.503 49.8071 661.636 49.951C658.529 49.9722 655.483 50.7613 652.809 52.238L650.275 47.7173C654.068 45.6796 658.37 44.6154 662.746 44.6327C670.947 44.6327 675.56 48.1694 675.56 55.6949V67.6081C675.403 70.546 675.614 73.4909 676.186 76.3834H669.95L668.754 73.1126Z" fill="#2E7F3E"/>
<path d="M696.147 71.331C702.725 71.331 706.17 67.1561 706.17 60.6943C706.17 53.5676 701.956 50.2968 695.749 50.2968C694.254 50.2847 692.767 50.4819 691.335 50.8818V70.3205C692.846 70.9928 694.502 71.3295 696.176 71.3044M684.188 46.5739C688.037 45.2942 692.09 44.6289 696.176 44.6061C707.565 44.6061 713.83 50.7489 713.83 60.774C713.908 63.3211 713.324 65.848 712.128 68.1383C710.933 70.4286 709.16 72.4142 706.963 73.925C704.766 75.4358 702.209 76.4269 699.512 76.8134C696.816 77.1999 694.059 76.9702 691.477 76.1442V91.8334H684.188V46.6271V46.5739Z" fill="#2E7F3E"/>
<path d="M719.07 61.1195C718.876 56.9381 720.468 52.8561 723.495 49.7698C726.522 46.6836 730.737 44.8455 735.215 44.6591H736.154C739.219 44.5858 742.248 45.2838 744.924 46.6801V52.5037C742.556 50.9813 739.741 50.1823 736.866 50.2168C730.431 50.2168 726.501 54.7906 726.501 60.8536C726.501 67.5814 730.431 71.4904 736.467 71.4904C739.241 71.4612 741.956 70.7356 744.326 69.3896L746.433 74.0964C743.154 76.0525 739.333 77.0693 735.442 77.0215C724.878 77.0215 718.984 70.0278 718.984 61.0663" fill="#2E7F3E"/>
<path d="M759.417 51.174H749.109V45.4036H778.751L776.729 51.174H766.706V76.3566H759.417V51.174Z" fill="#2E7F3E"/>
<path d="M797.458 71.4107C801.445 71.4107 803.153 70.0279 803.153 67.2092C803.153 64.3904 801.245 63.0342 797.686 63.0342H790.881V71.4107H797.458ZM797.117 58.3806C800.619 58.3806 802.441 57.0776 802.441 54.3919C802.441 51.7061 800.961 50.4031 796.747 50.4031H791.052V58.3806H797.117ZM784.018 45.4304H796.633C806.513 45.4304 809.674 49.7383 809.674 53.7271C809.714 55.2868 809.166 56.8102 808.125 58.0304C807.084 59.2507 805.616 60.09 803.979 60.4016C805.725 60.6813 807.31 61.5236 808.46 62.7819C809.61 64.0402 810.251 65.6349 810.272 67.2889C810.272 71.5968 807.054 76.1175 797.031 76.1175H783.848V45.4304H784.018Z" fill="#2E7F3E"/>
<path d="M837.181 57.7425C837.181 53.8069 835.017 49.951 830.319 49.951C825.62 49.951 823.314 53.5409 823.257 57.7425H837.181ZM823.314 62.5822C823.214 64.8845 824.096 67.1298 825.767 68.825C827.438 70.5202 829.761 71.5267 832.226 71.6235H833.194C836.126 71.6258 839.005 70.9008 841.537 69.5227L843.644 74.1763C840.219 76.1283 836.267 77.1248 832.255 77.0482C820.694 77.0482 815.711 69.3897 815.711 60.8271C815.711 51.4668 821.235 44.6592 830.205 44.6592C839.174 44.6592 844.442 50.9349 844.442 60.9601V62.6088H823.257L823.314 62.5822Z" fill="#2E7F3E"/>
<path d="M851.702 45.4036H858.992V56.9445H873.001V45.4036H880.29V76.3566H873.001V62.8745H858.992V76.3566H851.702V45.4036Z" fill="#2E7F3E"/>
<path d="M889.032 45.4036H896.322V56.9445H910.331V45.4036H917.649V76.3566H910.331V62.8745H896.322V76.3566H889.032V45.4036Z" fill="#2E7F3E"/>
<path d="M955.89 45.4304H963.237V76.3834H955.947V45.4304H955.89ZM937.097 71.065C943.048 71.065 944.187 69.044 944.187 66.4912C944.187 63.9384 942.792 61.9706 937.097 61.9706C935.955 61.9801 934.814 62.0512 933.68 62.1833V71.0916H937.097V71.065ZM926.391 45.4304H933.68V56.7851C934.909 56.651 936.145 56.58 937.382 56.5724C947.946 56.5724 951.619 61.1462 951.619 66.3316C951.619 71.5171 948.316 76.3568 937.382 76.3568H926.22V45.4304H926.391Z" fill="#2E7F3E"/>
<path d="M975.793 30.4592H981.887C981.81 31.1518 981.889 31.8518 982.12 32.5138C982.351 33.1759 982.729 33.7853 983.228 34.3024C983.727 34.8196 984.337 35.2331 985.019 35.5162C985.7 35.7992 986.437 35.9454 987.183 35.9454C987.929 35.9454 988.666 35.7992 989.347 35.5162C990.028 35.2331 990.638 34.8196 991.138 34.3024C991.637 33.7853 992.014 33.1759 992.245 32.5138C992.476 31.8518 992.556 31.1518 992.479 30.4592H998.573C998.712 31.8814 998.511 33.3148 997.986 34.656C997.46 35.9972 996.622 37.2127 995.533 38.215C994.443 39.2172 993.129 39.9812 991.685 40.4518C990.241 40.9224 988.704 41.0879 987.183 40.9364C979.609 40.9364 975.565 36.5487 975.793 30.4592ZM972.006 45.4304H979.153V60.4815C979.214 62.6655 979.119 64.8509 978.868 67.0231C979.922 65.401 981.374 63.2204 983.367 60.5347L994.757 45.4304H1001.76V76.3835H994.558V61.3324C994.534 59.1488 994.629 56.9654 994.842 54.7908H994.643C993.675 56.3597 992.194 58.5935 990.23 61.2792L978.84 76.3835H971.835V45.4304H972.006Z" fill="#2E7F3E"/>
<path d="M149.099 120.393C147.262 120.342 145.437 120.698 143.774 121.43C143.033 121.811 142.423 122.381 142.015 123.073C141.607 123.764 141.417 124.55 141.468 125.339C141.398 126.539 141.836 127.718 142.689 128.618C143.541 129.519 144.74 130.07 146.024 130.152H146.764C149.473 130.03 152.038 128.979 153.968 127.2V120.233L149.099 120.393ZM154.566 131.774C153.3 132.972 151.793 133.924 150.131 134.577C148.47 135.229 146.687 135.569 144.885 135.577C143.552 135.656 142.215 135.489 140.951 135.086C139.687 134.682 138.52 134.05 137.518 133.225C136.515 132.4 135.697 131.399 135.11 130.278C134.522 129.158 134.177 127.94 134.093 126.695C134.093 126.394 134.093 126.084 134.093 125.764C134.012 124.013 134.496 122.278 135.48 120.785C136.465 119.292 137.906 118.109 139.617 117.388C142.304 116.273 145.22 115.719 148.159 115.766L154.111 115.58V114.277C154.199 113.459 154.083 112.632 153.772 111.863C153.461 111.094 152.963 110.402 152.317 109.843C151.671 109.284 150.895 108.872 150.051 108.64C149.206 108.408 148.315 108.362 147.448 108.506C144.341 108.529 141.296 109.318 138.621 110.793L136.086 106.273C139.88 104.236 144.182 103.172 148.558 103.188C156.759 103.188 161.372 106.725 161.372 114.25V126.163C161.213 129.101 161.423 132.046 161.998 134.939H155.762L154.566 131.774Z" fill="#2E7F3E"/>
<path d="M170 103.959H193.235L191.07 109.996H177.26V134.912H170V103.959Z" fill="#2E7F3E"/>
<path d="M210.689 129.887C217.267 129.887 220.712 125.685 220.712 119.25C220.712 112.096 216.498 108.826 210.291 108.826C208.796 108.812 207.308 109.01 205.877 109.411V128.849C207.388 129.521 209.045 129.857 210.718 129.833M198.588 105.103C202.437 103.822 206.489 103.156 210.575 103.135C221.965 103.135 228.229 109.278 228.229 119.303C228.376 121.446 228.037 123.594 227.234 125.606C226.432 127.618 225.183 129.45 223.571 130.981C221.958 132.512 220.018 133.708 217.877 134.491C215.736 135.274 213.442 135.626 211.145 135.524C209.332 135.513 207.534 135.226 205.82 134.673V150.362H198.531V105.156L198.588 105.103Z" fill="#2E7F3E"/>
<path d="M248.531 120.393C246.694 120.343 244.87 120.699 243.207 121.43C242.466 121.811 241.856 122.381 241.447 123.073C241.039 123.764 240.849 124.55 240.9 125.339C240.866 125.94 240.959 126.541 241.173 127.108C241.388 127.676 241.72 128.198 242.152 128.645C242.583 129.092 243.104 129.455 243.686 129.714C244.268 129.973 244.898 130.122 245.542 130.152H246.282C249 130.036 251.577 128.985 253.514 127.2V120.233L248.531 120.393ZM253.999 131.774C252.732 132.972 251.225 133.924 249.564 134.577C247.902 135.229 246.12 135.569 244.317 135.577C242.984 135.656 241.647 135.489 240.383 135.086C239.119 134.682 237.952 134.05 236.95 133.225C235.948 132.4 235.129 131.399 234.542 130.278C233.954 129.158 233.609 127.94 233.526 126.695C233.526 126.394 233.526 126.084 233.526 125.764C233.445 124.013 233.928 122.278 234.912 120.785C235.897 119.292 237.338 118.109 239.05 117.388C241.737 116.274 244.652 115.72 247.592 115.766L253.543 115.58V114.277C253.631 113.459 253.515 112.632 253.204 111.863C252.893 111.094 252.395 110.402 251.749 109.843C251.104 109.284 250.328 108.872 249.483 108.64C248.638 108.408 247.747 108.362 246.88 108.506C243.773 108.53 240.729 109.319 238.053 110.793L235.519 106.273C239.312 104.236 243.615 103.172 247.99 103.188C256.191 103.188 260.804 106.725 260.804 114.25V126.163C260.645 129.101 260.856 132.046 261.43 134.939H255.166L253.999 131.774Z" fill="#2E7F3E"/>
<path d="M281.39 129.887C287.968 129.887 291.413 125.685 291.413 119.25C291.413 112.096 287.228 108.826 280.992 108.826C279.497 108.812 278.01 109.01 276.578 109.411V128.849C278.089 129.521 279.746 129.857 281.419 129.833M269.289 105.103C273.138 103.822 277.191 103.157 281.277 103.135C292.666 103.135 298.931 109.278 298.931 119.303C299.077 121.446 298.738 123.594 297.936 125.606C297.133 127.618 295.884 129.45 294.272 130.981C292.659 132.512 290.719 133.708 288.578 134.491C286.437 135.274 284.143 135.626 281.846 135.524C280.033 135.514 278.235 135.226 276.521 134.673V150.362H269.403V105.156L269.289 105.103Z" fill="#2E7F3E"/>
<path d="M306.049 103.959H313.338V115.474H327.348V103.959H334.637V134.912H327.348V121.43H313.338V134.912H306.049V103.959Z" fill="#2E7F3E"/>
<path d="M372.907 103.986H380.196V134.939H372.907V103.986ZM354.142 129.647C360.093 129.647 361.204 127.626 361.204 125.073C361.204 122.52 359.809 120.553 354.142 120.553C352.99 120.56 351.84 120.631 350.697 120.765V129.674H354.142V129.647ZM343.436 103.986H350.725V115.287C351.954 115.154 353.19 115.083 354.427 115.075C364.991 115.075 368.522 119.648 368.522 124.834C368.522 130.019 365.219 134.859 354.285 134.859H343.436V103.986Z" fill="#2E7F3E"/>
<path d="M392.81 88.9882H398.903C398.808 89.6886 398.873 90.4 399.095 91.0751C399.317 91.7501 399.69 92.3733 400.189 92.9032C400.689 93.4331 401.304 93.8576 401.993 94.1483C402.682 94.4391 403.429 94.5894 404.185 94.5894C404.941 94.5894 405.689 94.4391 406.378 94.1483C407.067 93.8576 407.682 93.4331 408.181 92.9032C408.681 92.3733 409.054 91.7501 409.276 91.0751C409.498 90.4 409.563 89.6886 409.467 88.9882H415.561C415.696 90.4083 415.492 91.8387 414.964 93.1766C414.437 94.5144 413.598 95.7265 412.509 96.7257C411.42 97.7249 410.108 98.4864 408.666 98.9555C407.224 99.4246 405.689 99.5897 404.171 99.4388C396.597 99.4388 392.554 95.0777 392.781 88.9882M388.994 103.986H396.141V119.037C396.202 121.221 396.107 123.406 395.857 125.579C396.91 123.957 398.391 121.776 400.327 119.09L411.717 103.986H418.722V134.939H411.774V119.888C411.75 117.704 411.845 115.521 412.059 113.346H411.774C410.806 114.915 409.325 117.149 407.36 119.835L395.971 134.966H388.994V103.986Z" fill="#2E7F3E"/>
<path d="M460.779 136.375C455.938 148.82 450.613 150.442 444.805 150.442C442.415 150.481 440.045 150.037 437.857 149.139L439.679 143.82C441.18 144.535 442.836 144.917 444.52 144.937C448.449 144.937 451.582 142.464 454.173 134.992L439.309 104.119H447.14L457.447 127.014L465.648 104.119H473.222L460.779 136.375Z" fill="#2E7F3E"/>
<path d="M478.433 103.959H485.722V115.474H499.732V103.959H507.021V134.912H499.732V121.43H485.722V134.912H478.433V103.959Z" fill="#2E7F3E"/>
<path d="M515.791 103.986H522.825V119.037C522.825 121.51 522.825 123.69 522.54 125.578C523.593 123.956 525.074 121.776 527.039 119.09L538.428 103.986H545.604V134.939H538.457V119.888C538.432 117.704 538.527 115.521 538.742 113.346H538.485C537.489 114.915 536.037 117.149 534.072 119.835L522.682 134.965H515.677V103.986H515.791Z" fill="#2E7F3E"/>
<path d="M567.842 129.966C571.828 129.966 573.536 128.583 573.536 125.765C573.536 122.946 571.657 121.59 568.069 121.59H561.264V129.966H567.842ZM567.443 116.936C570.945 116.936 572.768 115.633 572.768 112.947C572.768 110.261 571.315 108.958 567.073 108.958H561.378V116.936H567.443ZM554.345 103.986H566.959C576.839 103.986 580 108.32 580 112.309C580.04 113.869 579.492 115.392 578.451 116.612C577.41 117.833 575.942 118.672 574.305 118.984C576.086 119.249 577.706 120.1 578.875 121.382C580.045 122.664 580.686 124.293 580.683 125.977C580.683 130.285 577.466 134.806 567.443 134.806H554.202V103.986H554.345Z" fill="#2E7F3E"/>
<path d="M607.563 116.271C607.563 112.336 605.399 108.48 600.701 108.48C596.003 108.48 593.696 112.07 593.611 116.271H607.563ZM593.696 121.111C593.604 123.42 594.497 125.67 596.178 127.365C597.86 129.06 600.193 130.062 602.666 130.152H603.577C606.508 130.154 609.387 129.429 611.92 128.052L614.084 132.705C610.658 134.656 606.706 135.652 602.694 135.577C591.134 135.577 586.151 127.919 586.151 119.356C586.151 109.996 591.845 103.188 600.644 103.188C609.443 103.188 614.881 109.464 614.881 119.489V121.138H593.696V121.111Z" fill="#2E7F3E"/>
<path d="M634.073 129.887C640.651 129.887 644.096 125.685 644.096 119.25C644.096 112.096 639.882 108.826 633.646 108.826C632.152 108.812 630.664 109.01 629.233 109.411V128.849C630.744 129.521 632.4 129.857 634.073 129.833M621.943 105.103C625.792 103.823 629.845 103.157 633.931 103.135C645.321 103.135 651.585 109.278 651.585 119.303C651.732 121.446 651.393 123.594 650.59 125.606C649.787 127.618 648.539 129.45 646.926 130.981C645.314 132.512 643.374 133.708 641.232 134.491C639.091 135.274 636.797 135.626 634.5 135.524C632.688 135.514 630.889 135.226 629.176 134.673V150.362H621.886V105.156L621.943 105.103Z" fill="#2E7F3E"/>
<path d="M656.995 119.675C656.802 115.494 658.394 111.412 661.421 108.325C664.448 105.239 668.663 103.401 673.14 103.215H674.079C677.144 103.141 680.173 103.839 682.849 105.236V111.059C680.481 109.538 677.666 108.74 674.791 108.772C668.356 108.772 664.427 113.346 664.427 119.409C664.427 126.137 668.356 130.046 674.393 130.046C677.164 130.023 679.878 129.307 682.252 127.972L684.359 132.678C681.099 134.634 677.299 135.66 673.424 135.63C662.86 135.63 656.966 128.636 656.966 119.675" fill="#2E7F3E"/>
<path d="M689.883 103.986H697.03V119.037C697.03 121.51 697.03 123.69 696.745 125.578C697.799 123.956 699.28 121.776 701.244 119.09L712.634 103.986H719.639V134.939H712.52V119.888C712.497 117.704 712.592 115.521 712.805 113.346H712.662C711.694 114.915 710.214 117.149 708.249 119.835L696.859 134.965H689.883V103.986Z" fill="#2E7F3E"/>
<path d="M735.954 109.73H725.647V103.959H755.288L753.238 109.73H743.244V134.912H735.954V109.73Z" fill="#2E7F3E"/>
<path d="M780.175 116.271C780.175 112.336 778.011 108.48 773.312 108.48C768.614 108.48 766.308 112.07 766.251 116.271H780.175ZM766.308 121.111C766.207 123.413 767.09 125.659 768.761 127.354C770.432 129.049 772.755 130.056 775.22 130.152H776.188C779.119 130.152 781.998 129.427 784.531 128.052L786.695 132.705C783.269 134.656 779.317 135.652 775.306 135.577C763.745 135.577 758.762 127.919 758.762 119.356C758.762 109.996 764.286 103.188 773.255 103.188C782.225 103.188 787.493 109.464 787.493 119.489V121.138H766.308V121.111Z" fill="#2E7F3E"/>
<path d="M802.158 109.73H791.85V103.959H821.492L819.47 109.73H809.447V134.912H802.158V109.73Z" fill="#2E7F3E"/>
</svg>
