<svg width="157" height="115" viewBox="0 0 157 115" fill="none" xmlns="http://www.w3.org/2000/svg">
<g filter="url(#filter0_d_136_258)">
<mask id="path-1-inside-1_136_258" fill="white">
<path d="M34.1767 2.26852C29.7986 2.50012 24.3188 3.33965 20.4336 4.32394C17.1283 5.16347 16.6934 5.68456 16.5484 8.78215L16.4324 10.9244H11.1555C5.53071 10.9244 5.12479 11.0402 4.34196 12.5745C3.84906 13.5299 3.90705 105.763 4.39994 106.747C4.6029 107.152 5.24077 107.702 5.82065 107.992L6.89342 108.513L10.6046 106.921C30.2625 98.5544 51.95 96.7306 74.2464 101.536L78.2185 102.405L82.0747 101.565C86.8297 100.523 92.6865 99.6256 97.0936 99.2203C103.762 98.6413 115.94 98.9887 121.709 99.973C131.364 101.565 138.526 103.65 146.122 106.979C149.834 108.629 150.587 108.658 151.747 107.268L152.472 106.4V59.8201C152.472 9.12955 152.559 12.0245 150.877 11.2718C150.384 11.0402 148.326 10.9244 144.934 10.9244H139.715V8.72426C139.715 6.26355 139.454 5.59771 138.323 5.01872C136.235 3.97654 128.349 2.64487 121.709 2.26852C104.835 1.25529 90.7729 5.39507 80.4221 14.3694L78.1316 16.3669L76.044 14.4273C69.8973 8.69531 60.9382 4.61343 50.8483 2.99226C48.1228 2.55802 40.4104 1.92112 38.8158 2.00797C38.4099 2.00797 36.3223 2.12378 34.1767 2.26852ZM50.2104 8.86901C59.8364 10.6928 67.0269 14.1378 72.8837 19.6672L75.3481 21.9831V57.7067C75.3481 77.3634 75.2902 93.4304 75.2032 93.4304C75.1162 93.4304 74.5073 93.083 73.8115 92.6488C69.0565 89.638 60.8802 86.8878 52.9938 85.643C44.1796 84.2245 36.2353 84.1087 24.5507 85.2087L22.2892 85.4114V47.6323V9.85329L24.6957 9.3901C26.8123 8.98481 29.5957 8.57951 32.727 8.20316C33.2779 8.14526 36.7572 8.11632 40.4104 8.17422C45.6583 8.23212 47.7459 8.40582 50.2104 8.86901ZM128.001 8.72426C129.77 8.9848 131.857 9.36114 132.64 9.56379L134.061 9.91119L134.148 47.6613L134.206 85.4114L131.973 85.2087C125.363 84.6008 122.898 84.4561 118.375 84.4561C105.067 84.4561 93.3534 86.9747 84.1333 91.8382L81.1469 93.4014V57.7067V22.0121L83.1185 20.0724C89.8741 13.443 97.7895 10.0559 110.866 8.20316C112.924 7.91367 124.957 8.29002 128.001 8.72426ZM16.7804 53.2775V89.8407L17.3892 90.5065C18.317 91.4908 19.1289 91.6934 21.1874 91.375C25.5365 90.7381 33.017 90.246 38.3809 90.246C46.3542 90.246 53.0518 91.1144 59.4015 92.9672L61.866 93.6909L59.1115 93.4883C54.7624 93.1698 42.1791 93.2856 38.6708 93.662C29.6537 94.7042 19.9407 97.0491 11.7934 100.176L9.82181 100.928V58.8358V16.7143H13.3011H16.7804V53.2775ZM146.673 58.8358V100.928L144.731 100.176C135.279 96.6148 124.783 94.241 114.664 93.4014C110.692 93.083 99.7321 93.1988 95.9338 93.5751C94.8321 93.6909 95.006 93.6041 96.9486 92.9961C100.196 92.0119 105.908 90.9118 109.996 90.5065C114.345 90.0723 127.189 90.3328 132.031 90.9407C136.177 91.4908 137.801 91.5197 138.613 91.0855C140.034 90.3328 140.005 91.375 140.005 52.7564V16.7143H143.339H146.673V58.8358Z"/>
<path d="M128.001 8.72426C129.77 8.9848 131.857 9.36114 132.64 9.56379L134.061 9.91119L134.148 47.6613L134.206 85.4114L131.973 85.2087C125.363 84.6008 122.898 84.4561 118.375 84.4561C105.067 84.4561 93.3534 86.9747 84.1333 91.8382L81.1469 93.4014V57.7067V22.0121L83.1185 20.0724C89.8741 13.443 97.7895 10.0559 110.866 8.20316C112.924 7.91367 124.957 8.29002 128.001 8.72426Z"/>
<path d="M50.2104 8.86901C59.8364 10.6928 67.0269 14.1378 72.8837 19.6672L75.3481 21.9831V57.7067C75.3481 77.3634 75.2902 93.4304 75.2032 93.4304C75.1162 93.4304 74.5073 93.083 73.8115 92.6488C69.0565 89.638 60.8802 86.8878 52.9938 85.643C44.1796 84.2245 36.2353 84.1087 24.5507 85.2087L22.2892 85.4114V47.6323V9.85329L24.6957 9.3901C26.8123 8.98481 29.5957 8.57951 32.727 8.20316C33.2779 8.14526 36.7572 8.11632 40.4104 8.17422C45.6583 8.23212 47.7459 8.40582 50.2104 8.86901Z"/>
<path d="M146.673 58.8358V100.928L144.731 100.176C135.279 96.6148 124.783 94.241 114.664 93.4014C110.692 93.083 99.7321 93.1988 95.9338 93.5751C94.8321 93.6909 95.006 93.6041 96.9486 92.9961C100.196 92.0119 105.908 90.9118 109.996 90.5065C114.345 90.0723 127.189 90.3328 132.031 90.9407C136.177 91.4908 137.801 91.5197 138.613 91.0855C140.034 90.3328 140.005 91.375 140.005 52.7564V16.7143H143.339H146.673V58.8358Z"/>
<path d="M16.7804 53.2775V89.8407L17.3892 90.5065C18.317 91.4908 19.1289 91.6934 21.1874 91.375C25.5365 90.7381 33.017 90.246 38.3809 90.246C46.3542 90.246 53.0518 91.1144 59.4015 92.9672L61.866 93.6909L59.1115 93.4883C54.7624 93.1698 42.1791 93.2856 38.6708 93.662C29.6537 94.7042 19.9407 97.0491 11.7934 100.176L9.82181 100.928V58.8358V16.7143H13.3011H16.7804V53.2775Z"/>
<path d="M128.001 8.72429C129.77 8.98483 131.857 9.36117 132.64 9.56382L134.061 9.91122L134.148 47.6613L134.206 85.4114L131.973 85.2088C125.363 84.6008 122.898 84.4561 118.375 84.4561C105.067 84.4561 93.3534 86.9747 84.1333 91.8382L81.1469 93.4015V57.7068V22.0121L83.1185 20.0725C89.8741 13.4431 97.7894 10.056 110.866 8.20319C112.924 7.9137 124.957 8.29005 128.001 8.72429Z"/>
<path d="M50.2104 8.86904C59.8364 10.6929 67.0268 14.1378 72.8836 19.6672L75.3481 21.9831V57.7068C75.3481 77.3635 75.2901 93.4304 75.2031 93.4304C75.1162 93.4304 74.5073 93.083 73.8114 92.6488C69.0564 89.638 60.8801 86.8878 52.9938 85.643C44.1796 84.2245 36.2353 84.1087 24.5507 85.2088L22.2892 85.4114V47.6324V9.85332L24.6957 9.39013C26.8122 8.98484 29.5957 8.57954 32.727 8.20319C33.2779 8.14529 36.7572 8.11635 40.4104 8.17425C45.6583 8.23215 47.7459 8.40585 50.2104 8.86904Z"/>
</mask>
<path d="M128.001 8.72426C129.77 8.9848 131.857 9.36114 132.64 9.56379L134.061 9.91119L134.148 47.6613L134.206 85.4114L131.973 85.2087C125.363 84.6008 122.898 84.4561 118.375 84.4561C105.067 84.4561 93.3534 86.9747 84.1333 91.8382L81.1469 93.4014V57.7067V22.0121L83.1185 20.0724C89.8741 13.443 97.7895 10.0559 110.866 8.20316C112.924 7.91367 124.957 8.29002 128.001 8.72426Z" fill="#CCFFCC"/>
<path d="M50.2104 8.86901C59.8364 10.6928 67.0269 14.1378 72.8837 19.6672L75.3481 21.9831V57.7067C75.3481 77.3634 75.2902 93.4304 75.2032 93.4304C75.1162 93.4304 74.5073 93.083 73.8115 92.6488C69.0565 89.638 60.8802 86.8878 52.9938 85.643C44.1796 84.2245 36.2353 84.1087 24.5507 85.2087L22.2892 85.4114V47.6323V9.85329L24.6957 9.3901C26.8123 8.98481 29.5957 8.57951 32.727 8.20316C33.2779 8.14526 36.7572 8.11632 40.4104 8.17422C45.6583 8.23212 47.7459 8.40582 50.2104 8.86901Z" fill="#CCFFCC"/>
<path d="M146.673 58.8358V100.928L144.731 100.176C135.279 96.6148 124.783 94.241 114.664 93.4014C110.692 93.083 99.7321 93.1988 95.9338 93.5751C94.8321 93.6909 95.006 93.6041 96.9486 92.9961C100.196 92.0119 105.908 90.9118 109.996 90.5065C114.345 90.0723 127.189 90.3328 132.031 90.9407C136.177 91.4908 137.801 91.5197 138.613 91.0855C140.034 90.3328 140.005 91.375 140.005 52.7564V16.7143H143.339H146.673V58.8358Z" fill="#2E7F3E"/>
<path d="M16.7804 53.2775V89.8407L17.3892 90.5065C18.317 91.4908 19.1289 91.6934 21.1874 91.375C25.5365 90.7381 33.017 90.246 38.3809 90.246C46.3542 90.246 53.0518 91.1144 59.4015 92.9672L61.866 93.6909L59.1115 93.4883C54.7624 93.1698 42.1791 93.2856 38.6708 93.662C29.6537 94.7042 19.9407 97.0491 11.7934 100.176L9.82181 100.928V58.8358V16.7143H13.3011H16.7804V53.2775Z" fill="#2E7F3E"/>
<path d="M128.001 8.72429C129.77 8.98483 131.857 9.36117 132.64 9.56382L134.061 9.91122L134.148 47.6613L134.206 85.4114L131.973 85.2088C125.363 84.6008 122.898 84.4561 118.375 84.4561C105.067 84.4561 93.3534 86.9747 84.1333 91.8382L81.1469 93.4015V57.7068V22.0121L83.1185 20.0725C89.8741 13.4431 97.7894 10.056 110.866 8.20319C112.924 7.9137 124.957 8.29005 128.001 8.72429Z" fill="#CCFFCC"/>
<path d="M50.2104 8.86904C59.8364 10.6929 67.0268 14.1378 72.8836 19.6672L75.3481 21.9831V57.7068C75.3481 77.3635 75.2901 93.4304 75.2031 93.4304C75.1162 93.4304 74.5073 93.083 73.8114 92.6488C69.0564 89.638 60.8801 86.8878 52.9938 85.643C44.1796 84.2245 36.2353 84.1087 24.5507 85.2088L22.2892 85.4114V47.6324V9.85332L24.6957 9.39013C26.8122 8.98484 29.5957 8.57954 32.727 8.20319C33.2779 8.14529 36.7572 8.11635 40.4104 8.17425C45.6583 8.23215 47.7459 8.40585 50.2104 8.86904Z" fill="#CCFFCC"/>
<path d="M34.1767 2.26852C29.7986 2.50012 24.3188 3.33965 20.4336 4.32394C17.1283 5.16347 16.6934 5.68456 16.5484 8.78215L16.4324 10.9244H11.1555C5.53071 10.9244 5.12479 11.0402 4.34196 12.5745C3.84906 13.5299 3.90705 105.763 4.39994 106.747C4.6029 107.152 5.24077 107.702 5.82065 107.992L6.89342 108.513L10.6046 106.921C30.2625 98.5544 51.95 96.7306 74.2464 101.536L78.2185 102.405L82.0747 101.565C86.8297 100.523 92.6865 99.6256 97.0936 99.2203C103.762 98.6413 115.94 98.9887 121.709 99.973C131.364 101.565 138.526 103.65 146.122 106.979C149.834 108.629 150.587 108.658 151.747 107.268L152.472 106.4V59.8201C152.472 9.12955 152.559 12.0245 150.877 11.2718C150.384 11.0402 148.326 10.9244 144.934 10.9244H139.715V8.72426C139.715 6.26355 139.454 5.59771 138.323 5.01872C136.235 3.97654 128.349 2.64487 121.709 2.26852C104.835 1.25529 90.7729 5.39507 80.4221 14.3694L78.1316 16.3669L76.044 14.4273C69.8973 8.69531 60.9382 4.61343 50.8483 2.99226C48.1228 2.55802 40.4104 1.92112 38.8158 2.00797C38.4099 2.00797 36.3223 2.12378 34.1767 2.26852ZM50.2104 8.86901C59.8364 10.6928 67.0269 14.1378 72.8837 19.6672L75.3481 21.9831V57.7067C75.3481 77.3634 75.2902 93.4304 75.2032 93.4304C75.1162 93.4304 74.5073 93.083 73.8115 92.6488C69.0565 89.638 60.8802 86.8878 52.9938 85.643C44.1796 84.2245 36.2353 84.1087 24.5507 85.2087L22.2892 85.4114V47.6323V9.85329L24.6957 9.3901C26.8123 8.98481 29.5957 8.57951 32.727 8.20316C33.2779 8.14526 36.7572 8.11632 40.4104 8.17422C45.6583 8.23212 47.7459 8.40582 50.2104 8.86901ZM128.001 8.72426C129.77 8.9848 131.857 9.36114 132.64 9.56379L134.061 9.91119L134.148 47.6613L134.206 85.4114L131.973 85.2087C125.363 84.6008 122.898 84.4561 118.375 84.4561C105.067 84.4561 93.3534 86.9747 84.1333 91.8382L81.1469 93.4014V57.7067V22.0121L83.1185 20.0724C89.8741 13.443 97.7895 10.0559 110.866 8.20316C112.924 7.91367 124.957 8.29002 128.001 8.72426ZM16.7804 53.2775V89.8407L17.3892 90.5065C18.317 91.4908 19.1289 91.6934 21.1874 91.375C25.5365 90.7381 33.017 90.246 38.3809 90.246C46.3542 90.246 53.0518 91.1144 59.4015 92.9672L61.866 93.6909L59.1115 93.4883C54.7624 93.1698 42.1791 93.2856 38.6708 93.662C29.6537 94.7042 19.9407 97.0491 11.7934 100.176L9.82181 100.928V58.8358V16.7143H13.3011H16.7804V53.2775ZM146.673 58.8358V100.928L144.731 100.176C135.279 96.6148 124.783 94.241 114.664 93.4014C110.692 93.083 99.7321 93.1988 95.9338 93.5751C94.8321 93.6909 95.006 93.6041 96.9486 92.9961C100.196 92.0119 105.908 90.9118 109.996 90.5065C114.345 90.0723 127.189 90.3328 132.031 90.9407C136.177 91.4908 137.801 91.5197 138.613 91.0855C140.034 90.3328 140.005 91.375 140.005 52.7564V16.7143H143.339H146.673V58.8358Z" stroke="black" stroke-width="2" mask="url(#path-1-inside-1_136_258)"/>
<path d="M128.001 8.72426C129.77 8.9848 131.857 9.36114 132.64 9.56379L134.061 9.91119L134.148 47.6613L134.206 85.4114L131.973 85.2087C125.363 84.6008 122.898 84.4561 118.375 84.4561C105.067 84.4561 93.3534 86.9747 84.1333 91.8382L81.1469 93.4014V57.7067V22.0121L83.1185 20.0724C89.8741 13.443 97.7895 10.0559 110.866 8.20316C112.924 7.91367 124.957 8.29002 128.001 8.72426Z" stroke="black" stroke-width="2" mask="url(#path-1-inside-1_136_258)"/>
<path d="M50.2104 8.86901C59.8364 10.6928 67.0269 14.1378 72.8837 19.6672L75.3481 21.9831V57.7067C75.3481 77.3634 75.2902 93.4304 75.2032 93.4304C75.1162 93.4304 74.5073 93.083 73.8115 92.6488C69.0565 89.638 60.8802 86.8878 52.9938 85.643C44.1796 84.2245 36.2353 84.1087 24.5507 85.2087L22.2892 85.4114V47.6323V9.85329L24.6957 9.3901C26.8123 8.98481 29.5957 8.57951 32.727 8.20316C33.2779 8.14526 36.7572 8.11632 40.4104 8.17422C45.6583 8.23212 47.7459 8.40582 50.2104 8.86901Z" stroke="black" stroke-width="2" mask="url(#path-1-inside-1_136_258)"/>
<path d="M146.673 58.8358V100.928L144.731 100.176C135.279 96.6148 124.783 94.241 114.664 93.4014C110.692 93.083 99.7321 93.1988 95.9338 93.5751C94.8321 93.6909 95.006 93.6041 96.9486 92.9961C100.196 92.0119 105.908 90.9118 109.996 90.5065C114.345 90.0723 127.189 90.3328 132.031 90.9407C136.177 91.4908 137.801 91.5197 138.613 91.0855C140.034 90.3328 140.005 91.375 140.005 52.7564V16.7143H143.339H146.673V58.8358Z" stroke="black" stroke-width="2" mask="url(#path-1-inside-1_136_258)"/>
<path d="M16.7804 53.2775V89.8407L17.3892 90.5065C18.317 91.4908 19.1289 91.6934 21.1874 91.375C25.5365 90.7381 33.017 90.246 38.3809 90.246C46.3542 90.246 53.0518 91.1144 59.4015 92.9672L61.866 93.6909L59.1115 93.4883C54.7624 93.1698 42.1791 93.2856 38.6708 93.662C29.6537 94.7042 19.9407 97.0491 11.7934 100.176L9.82181 100.928V58.8358V16.7143H13.3011H16.7804V53.2775Z" stroke="black" stroke-width="2" mask="url(#path-1-inside-1_136_258)"/>
<path d="M128.001 8.72429C129.77 8.98483 131.857 9.36117 132.64 9.56382L134.061 9.91122L134.148 47.6613L134.206 85.4114L131.973 85.2088C125.363 84.6008 122.898 84.4561 118.375 84.4561C105.067 84.4561 93.3534 86.9747 84.1333 91.8382L81.1469 93.4015V57.7068V22.0121L83.1185 20.0725C89.8741 13.4431 97.7894 10.056 110.866 8.20319C112.924 7.9137 124.957 8.29005 128.001 8.72429Z" stroke="black" stroke-width="2" mask="url(#path-1-inside-1_136_258)"/>
<path d="M50.2104 8.86904C59.8364 10.6929 67.0268 14.1378 72.8836 19.6672L75.3481 21.9831V57.7068C75.3481 77.3635 75.2901 93.4304 75.2031 93.4304C75.1162 93.4304 74.5073 93.083 73.8114 92.6488C69.0564 89.638 60.8801 86.8878 52.9938 85.643C44.1796 84.2245 36.2353 84.1087 24.5507 85.2088L22.2892 85.4114V47.6324V9.85332L24.6957 9.39013C26.8122 8.98484 29.5957 8.57954 32.727 8.20319C33.2779 8.14529 36.7572 8.11635 40.4104 8.17425C45.6583 8.23215 47.7459 8.40585 50.2104 8.86904Z" stroke="black" stroke-width="2" mask="url(#path-1-inside-1_136_258)"/>
</g>
<defs>
<filter id="filter0_d_136_258" x="0" y="0" width="156.473" height="114.513" filterUnits="userSpaceOnUse" color-interpolation-filters="sRGB">
<feFlood flood-opacity="0" result="BackgroundImageFix"/>
<feColorMatrix in="SourceAlpha" type="matrix" values="0 0 0 0 0 0 0 0 0 0 0 0 0 0 0 0 0 0 127 0" result="hardAlpha"/>
<feOffset dy="2"/>
<feGaussianBlur stdDeviation="2"/>
<feComposite in2="hardAlpha" operator="out"/>
<feColorMatrix type="matrix" values="0 0 0 0 0 0 0 0 0 0 0 0 0 0 0 0 0 0 0.25 0"/>
<feBlend mode="normal" in2="BackgroundImageFix" result="effect1_dropShadow_136_258"/>
<feBlend mode="normal" in="SourceGraphic" in2="effect1_dropShadow_136_258" result="shape"/>
</filter>
</defs>
</svg>
