<svg width="308" height="308" viewBox="0 0 308 308" fill="#8c8c8c" xmlns="http://www.w3.org/2000/svg">
<path d="M12.75 185.75L122 185.75L122 295C122 301.627 127.373 307 134 307L174 307C180.627 307 186 301.627 186 295L186 185.75L295.25 185.75C301.877 185.75 307.25 180.377 307.25 173.75L307.25 133.75C307.25 127.123 301.877 121.75 295.25 121.75L186 121.75L186 12.5C186 5.87258 180.627 0.499993 174 0.499992L134 0.499987C127.373 0.499986 122 5.87257 122 12.5L122 121.75L12.75 121.75C6.12261 121.75 0.750024 127.123 0.750023 133.75L0.750017 173.75C0.750017 180.377 6.1226 185.75 12.75 185.75Z" stroke="black"/>
</svg>
