<svg width="65" height="84" viewBox="0 0 65 84" fill="none" xmlns="http://www.w3.org/2000/svg">
<path d="M17.953 4.83157C10.7199 7.48352 4.88965 9.7177 5.01719 9.77219C5.14473 9.84485 11.066 12.1517 18.1898 14.9126L31.1256 19.9259L44.0613 14.9126C51.1669 12.1517 57.0882 9.84485 57.1975 9.77219C57.325 9.69954 51.8774 7.61067 45.0816 5.14036C38.304 2.65188 32.3827 0.472197 31.9272 0.30872L31.1073 -6.86646e-05L17.953 4.83157Z" fill="#2E7F3E"/>
<path d="M59.5089 9.40297C59.2357 9.71176 59.1992 10.7653 59.1992 20.7192V31.7084L58.6162 31.9264C55.7558 32.9436 54.7901 36.9034 56.8125 39.2465C58.6344 41.3899 62.1872 41.3899 63.9363 39.2647C65.6124 37.2303 65.2663 34.0153 63.1893 32.5077C62.7884 32.217 62.2236 31.9264 61.9139 31.8719L61.3855 31.7448V20.7192C61.3855 10.2567 61.3673 9.65727 61.0576 9.38481C60.6203 8.9852 59.8733 9.00336 59.5089 9.40297Z" fill="#CCFFCC"/>
<path d="M12.011 19.7928V24.3339L12.5029 24.5337C14.9443 25.46 20.2097 26.6952 23.7625 27.1856C27.3335 27.6579 35.0403 27.6216 38.5566 27.0948C41.8908 26.6044 44.8241 25.9323 47.5023 25.0968L49.634 24.4065L49.6887 19.8292C49.7069 17.3044 49.7069 15.2518 49.6522 15.2518C49.6158 15.2518 45.48 16.8503 40.4514 18.7938C35.4411 20.7374 31.1231 22.3358 30.8863 22.3358C30.6312 22.3358 26.3314 20.7374 21.3029 18.7938C16.2743 16.8503 12.1385 15.2518 12.0839 15.2518C12.0474 15.2518 12.011 17.3044 12.011 19.7928Z" fill="#2E7F3E"/>
<path d="M13.3411 32.7438C13.4322 39.2466 13.5597 40.1366 15.0173 43.1882C16.0922 45.4587 17.1125 46.8391 19.062 48.6737C22.4872 51.9069 26.2222 53.3964 30.8681 53.3964C35.5687 53.3964 39.3402 51.8706 42.7836 48.5829C45.0975 46.3669 46.4822 44.2235 47.4842 41.3173C48.2859 38.9741 48.4498 37.3757 48.4498 32.0536V27.113L46.5915 27.6397C38.6843 29.8557 29.939 30.3462 21.6856 29.0384C19.481 28.6932 15.8736 27.8759 14.1427 27.3491L13.25 27.0585L13.3411 32.7438Z" fill="#CCFFCC"/>
<path d="M22.0317 55.4671V57.3925L26.3315 60.2261L30.6313 63.0415L31.852 62.3149C32.5079 61.8972 34.5302 60.6438 36.334 59.5177L39.6134 57.447L39.6681 55.5216C39.6863 54.4499 39.6863 53.578 39.6499 53.578C39.5952 53.578 39.1215 53.7778 38.5932 54.014C36.3522 55.0312 34.4938 55.4308 31.5787 55.5216C27.9713 55.6487 26.0218 55.2491 22.3597 53.6688C22.05 53.5417 22.0317 53.7052 22.0317 55.4671Z" fill="#CCFFCC"/>
<path d="M9.19681 59.3293C5.94114 60.0248 2.83262 62.4225 1.32434 65.4425C0.128755 67.8401 0 66.6821 0 73.2711V75.9999L30.7173 83.9999L62.1888 75.9999L62.1336 72.8135C62.0785 66.6638 62.0601 68.6455 61.5634 67.1812C60.9748 65.4425 59.9632 63.8318 58.5653 62.4408C57.2777 61.1596 55.8798 60.3177 53.9853 59.6405C52.5138 59.1463 52.4954 59.128 46.9589 59.0731L41.404 58.9999L36.217 62.2212C33.366 63.9965 30.8829 65.4425 30.7173 65.4425C30.5334 65.4425 28.179 63.9966 25.4752 62.2395L20.5641 59.0365L15.4874 59.0548C11.8639 59.0548 10.0429 59.1463 9.19681 59.3293Z" fill="#2E7F3E"/>
</svg>
