<svg width="272" height="49" viewBox="0 0 272 49" fill="none" xmlns="http://www.w3.org/2000/svg">
<path d="M6.78069 12.4276L13.5361 5.6177L16.1851 8.29548L4.06372 20.5296C4.0108 20.1156 3.98399 19.6986 3.98345 19.2812C3.98397 18.0178 4.23134 16.767 4.71137 15.6005C5.1914 14.434 5.89463 13.3748 6.78069 12.4838M21.4832 13.9569L8.09594 27.4643L7.00298 26.3221H6.96593L6.76834 26.1286C6.30995 25.6751 5.89633 25.1775 5.53335 24.643L18.9206 11.0669L20.2605 12.4214C20.7049 12.8715 21.1041 13.3649 21.4523 13.8945M20.2667 26.0724L13.5175 32.9385L10.8438 30.2357L22.9652 17.9767C23.1642 19.4479 23.0242 20.9458 22.5562 22.3534C22.0881 23.7609 21.3045 25.0401 20.2667 26.0911M4.21192 29.1372L13.4743 38.5L22.9158 28.9561L23.4838 28.3694C25.6877 25.8862 26.9143 22.6724 26.9313 19.3364C26.9484 16.0005 25.7548 12.774 23.5765 10.2679L13.462 0L3.94022 9.64997C1.41722 12.2027 0 15.6634 0 19.2718C0 22.8802 1.41722 26.341 3.94022 28.8937L4.19957 29.1434" fill="white"/>
<path d="M26.5903 28C26.0737 30.1508 25.0093 32.139 23.4961 33.7795L22.9267 34.3484L13.4832 43.6017L4.20052 34.5239L3.94679 34.2818C2.17795 32.5581 0.938741 30.3839 0.36987 28.0061H0.221348C-0.172027 30.1005 -0.0396561 32.2571 0.607092 34.2905C1.25384 36.3239 2.39563 38.1734 3.93441 39.6801L4.20052 39.9222L13.4832 49L22.9082 39.7467L23.4775 39.1778C24.8531 37.6795 25.8599 35.8933 26.4209 33.9559C26.9819 32.0184 27.0822 29.9812 26.7141 28H26.5903Z" fill="white"/>
<path d="M37.1571 9.00171H39.1536V14.1057H39.1922L43.6245 9.00171H45.9602L40.8803 14.7033L46.2454 20.6712H43.8173L39.1922 15.4807H39.1536V20.6712H37.1571V9.00171Z" fill="white"/>
<path d="M52.5818 21.0672C51.2713 24.4363 49.8298 24.8754 48.2573 24.8754C47.6104 24.8858 46.9688 24.7655 46.3764 24.5226L46.8697 23.0829C47.276 23.2761 47.7243 23.3795 48.1802 23.3852C49.244 23.3852 50.0996 22.7157 50.8011 20.6928L46.7772 12.3349H48.8971L51.6876 18.5331L53.9076 12.3349H55.9735L52.5818 21.0672Z" fill="white"/>
<path d="M63.3737 16.7118C63.3737 15.3656 62.8957 14.1274 61.3078 14.1274C60.4677 14.1609 59.6506 14.3938 58.9336 14.8041V15.4736C58.9336 18.1444 59.7892 19.3682 61.2461 19.3682C62.8418 19.3466 63.4276 18.1516 63.4276 16.7118M56.9294 15.3944C56.9294 13.3787 57.4998 11.4062 58.3477 10.5567C59.45 9.31848 60.7605 9.11691 64.6841 8.16666V9.8656C61.2307 10.7295 60.2286 10.9094 59.6427 11.6869C59.2908 12.1944 59.0692 12.7709 58.9952 13.3715C59.7895 12.9282 60.6913 12.6805 61.6161 12.6516C64.237 12.6516 65.3702 14.3865 65.3702 16.5822C65.3702 19.0442 63.9287 20.9016 61.0997 20.9016C58.6175 20.9016 56.8908 19.361 56.8908 15.4088" fill="white"/>
<path d="M70.9049 16.7118C70.4074 16.6978 69.9135 16.794 69.4634 16.9925C69.2616 17.0962 69.0956 17.2515 68.985 17.4403C68.8744 17.629 68.8237 17.8433 68.839 18.058C68.8308 18.2206 68.8569 18.3832 68.916 18.5364C68.9751 18.6896 69.0659 18.8304 69.1833 18.9508C69.3008 19.0711 69.4425 19.1687 69.6003 19.2378C69.7582 19.307 69.9291 19.3464 70.1032 19.3538H70.296C71.0292 19.3206 71.7235 19.0361 72.2462 18.5547V16.7118H70.9049ZM72.385 19.7929C71.6944 20.4459 70.7545 20.8162 69.7718 20.8223C69.4109 20.8438 69.0489 20.7986 68.7067 20.6894C68.3645 20.5801 68.0487 20.409 67.7773 20.1857C67.506 19.9624 67.2845 19.6913 67.1254 19.388C66.9663 19.0846 66.8728 18.755 66.8503 18.4179C66.8503 18.3363 66.8503 18.2523 66.8503 18.1659C66.8284 17.6917 66.9592 17.2222 67.2257 16.818C67.4923 16.4138 67.8824 16.0935 68.3457 15.8983C69.073 15.5962 69.8623 15.4463 70.6583 15.4591L72.2693 15.4088V15.0848C72.2933 14.8633 72.2619 14.6396 72.1776 14.4313C72.0934 14.2231 71.9585 14.0359 71.7837 13.8845C71.6089 13.7331 71.3989 13.6216 71.1702 13.5588C70.9415 13.4961 70.7003 13.4837 70.4655 13.5226C69.6245 13.5291 68.8002 13.7426 68.0759 14.1417L67.3898 12.9179C68.4167 12.3663 69.5816 12.0782 70.7662 12.0829C72.9862 12.0829 74.235 13.0403 74.235 15.0776V18.3027C74.1928 19.0981 74.2497 19.8953 74.4046 20.6784H72.7164L72.385 19.7929Z" fill="white"/>
<path d="M76.5552 12.2916H78.5286V15.4159H82.3212V12.2916H84.2946V20.6711H82.3212V17.0213H78.5286V20.6711H76.5552V12.2916Z" fill="white"/>
<path d="M86.1986 16.5462C86.1464 15.4142 86.5773 14.3091 87.3968 13.4736C88.2163 12.6381 89.3573 12.1405 90.5694 12.0901H90.8237C91.6534 12.0702 92.4735 12.2592 93.198 12.6372V14.2138C92.5564 13.8025 91.7946 13.5862 91.0165 13.5946C89.2743 13.5946 88.2106 14.8329 88.2106 16.4742C88.2106 18.2955 89.2743 19.3538 90.9008 19.3538C91.6518 19.3455 92.3865 19.1491 93.0284 18.7851L93.5988 20.0593C92.7163 20.5887 91.6876 20.8663 90.6387 20.8584C87.7789 20.8584 86.1832 18.965 86.1832 16.539" fill="white"/>
<path d="M95.0943 12.2988H97.0676V15.6967H98.116C99.2954 15.6967 99.2723 13.8754 99.9969 12.8171C100.167 12.5701 100.405 12.3694 100.685 12.2354C100.965 12.1014 101.278 12.0389 101.593 12.0541C101.874 12.0544 102.154 12.0907 102.425 12.162V13.7386C102.271 13.6891 102.11 13.6647 101.947 13.6666C101.821 13.6636 101.696 13.6897 101.583 13.7424C101.47 13.7951 101.373 13.8729 101.3 13.969C100.829 14.5881 100.768 15.9127 99.9352 16.3734C100.184 16.4688 100.408 16.6134 100.592 16.7973C100.776 16.9812 100.915 17.2001 100.999 17.4388L102.649 20.6136H100.529L99.2954 17.8852C98.9948 17.2877 98.725 17.0501 98.4629 17.0501H97.0368V20.6496H95.0634V12.2988H95.0943Z" fill="white"/>
<path d="M104.237 12.2989H106.171V16.3735C106.188 16.9647 106.162 17.5563 106.094 18.1444C106.379 17.7053 106.78 17.1149 107.312 16.3878L110.396 12.2989H112.292V20.6784H110.357V16.6038C110.351 16.0127 110.377 15.4216 110.434 14.8329H110.38C110.11 15.2576 109.717 15.8623 109.185 16.5894L106.102 20.6784H104.206V12.2989H104.237Z" fill="white"/>
<path d="M115.715 8.24585H117.387C117.366 8.43335 117.388 8.62286 117.451 8.80209C117.513 8.98132 117.615 9.14628 117.75 9.28629C117.886 9.42631 118.051 9.53825 118.235 9.61487C118.42 9.69149 118.619 9.73108 118.821 9.73108C119.023 9.73108 119.223 9.69149 119.407 9.61487C119.591 9.53825 119.757 9.42631 119.892 9.28629C120.027 9.14628 120.129 8.98132 120.192 8.80209C120.254 8.62286 120.276 8.43335 120.255 8.24585H121.904C121.941 8.63059 121.885 9.01806 121.743 9.38053C121.6 9.743 121.373 10.0715 121.078 10.3425C120.784 10.6136 120.429 10.8204 120.038 10.9483C119.648 11.0762 119.232 11.1219 118.821 11.0822C116.771 11.0822 115.676 9.8944 115.738 8.24585M114.712 12.2988H116.616V16.3734C116.633 16.9647 116.607 17.5563 116.539 18.1444C116.825 17.7052 117.225 17.1149 117.757 16.3878L120.841 12.2988H122.783V20.6784H120.848V16.6038C120.842 16.0126 120.868 15.4216 120.925 14.8329H120.872C120.609 15.2576 120.209 15.8623 119.677 16.5894L116.593 20.6784H114.697V12.2988H114.712Z" fill="white"/>
<path d="M129.312 12.2916H135.61L135.024 13.9258H131.286V20.6711H129.312V12.2916Z" fill="white"/>
<path d="M143.326 16.4598C143.326 14.7969 142.494 13.5803 141.014 13.5803C139.534 13.5803 138.701 14.7825 138.701 16.4598C138.701 18.1372 139.557 19.3394 141.014 19.3394C142.471 19.3394 143.326 18.1372 143.326 16.4598ZM136.612 16.4598C136.612 13.9618 138.362 12.0829 140.991 12.0829C143.619 12.0829 145.392 13.933 145.392 16.4598C145.392 18.9867 143.65 20.8512 141.029 20.8512C138.408 20.8512 136.659 18.9579 136.659 16.4598" fill="white"/>
<path d="M146.818 16.5462C146.766 15.4142 147.197 14.3091 148.017 13.4736C148.836 12.6381 149.977 12.1405 151.189 12.0901H151.443C152.273 12.0723 153.092 12.2612 153.818 12.6372V14.2138C153.176 13.8025 152.414 13.5862 151.636 13.5946C149.886 13.5946 148.83 14.8329 148.83 16.4742C148.83 18.2955 149.886 19.3538 151.521 19.3538C152.272 19.3459 153.006 19.1495 153.648 18.7851L154.219 20.0593C153.338 20.5873 152.312 20.8649 151.266 20.8584C148.399 20.8584 146.811 18.965 146.811 16.539" fill="white"/>
<path d="M160.516 21.0672C159.206 24.4363 157.764 24.8754 156.192 24.8754C155.545 24.8858 154.903 24.7655 154.311 24.5226L154.804 23.0829C155.208 23.2752 155.654 23.3787 156.107 23.3852C157.171 23.3852 158.027 22.7157 158.728 20.6928L154.712 12.3349H156.832L159.622 18.5331L161.842 12.3349H163.893L160.516 21.0672Z" fill="white"/>
<path d="M170.907 13.8322H169.134C168.897 15.7053 168.251 17.5132 167.238 19.145H170.915V13.8322H170.907ZM164.517 19.181H165.088C166.375 17.6908 167.007 15.9055 167.685 12.306H172.889V19.181H174.16V23.6227H172.326V20.6784H166.367V23.6155H164.533V19.1738L164.517 19.181Z" fill="white"/>
<path d="M179.564 16.7118C179.067 16.698 178.573 16.7942 178.123 16.9925C177.921 17.0962 177.755 17.2515 177.644 17.4403C177.534 17.629 177.483 17.8433 177.498 18.058C177.49 18.2206 177.516 18.3832 177.575 18.5364C177.634 18.6896 177.725 18.8304 177.843 18.9508C177.96 19.0711 178.102 19.1687 178.259 19.2378C178.417 19.307 178.588 19.3464 178.762 19.3538H178.955C179.688 19.3206 180.383 19.0361 180.905 18.5547V16.7118H179.564ZM181.044 19.7929C180.701 20.1171 180.293 20.3749 179.844 20.5516C179.394 20.7282 178.911 20.8202 178.423 20.8223C178.062 20.8438 177.7 20.7986 177.358 20.6894C177.016 20.5801 176.7 20.409 176.429 20.1857C176.157 19.9624 175.936 19.6913 175.777 19.388C175.618 19.0846 175.524 18.755 175.502 18.4179C175.502 18.3363 175.502 18.2523 175.502 18.1659C175.48 17.6917 175.611 17.2222 175.877 16.818C176.144 16.4138 176.534 16.0935 176.997 15.8983C177.724 15.5959 178.514 15.446 179.31 15.4591L180.921 15.4088V15.0848C180.945 14.8633 180.913 14.6396 180.829 14.4313C180.745 14.2231 180.61 14.0359 180.435 13.8845C180.26 13.7331 180.05 13.6216 179.822 13.5588C179.593 13.4961 179.352 13.4837 179.117 13.5226C178.276 13.5284 177.451 13.742 176.727 14.1417L176.041 12.9179C177.068 12.3663 178.233 12.0782 179.418 12.0829C181.638 12.0829 182.886 13.0403 182.886 15.0776V18.3027C182.844 19.0981 182.901 19.8953 183.056 20.6784H181.368L181.044 19.7929Z" fill="white"/>
<path d="M188.46 19.3106C190.24 19.3106 191.173 18.1804 191.173 16.431C191.173 14.5017 190.032 13.6163 188.352 13.6163C187.947 13.613 187.545 13.6664 187.157 13.7746V19.037C187.566 19.219 188.014 19.3102 188.467 19.3034M185.222 12.6084C186.264 12.2619 187.361 12.0819 188.467 12.0757C191.551 12.0757 193.247 13.7386 193.247 16.4526C193.268 17.1422 193.11 17.8262 192.786 18.4463C192.462 19.0663 191.983 19.6038 191.388 20.0128C190.793 20.4218 190.101 20.6901 189.371 20.7948C188.641 20.8994 187.894 20.8372 187.196 20.6136V24.861H185.222V12.6228V12.6084Z" fill="white"/>
<path d="M194.665 16.5462C194.613 15.4142 195.044 14.3091 195.863 13.4736C196.683 12.6381 197.824 12.1405 199.036 12.0901H199.29C200.12 12.0702 200.94 12.2592 201.664 12.6372V14.2138C201.023 13.8016 200.261 13.5853 199.483 13.5946C197.741 13.5946 196.677 14.8329 196.677 16.4742C196.677 18.2955 197.741 19.3538 199.375 19.3538C200.126 19.3459 200.861 19.1495 201.503 18.7851L202.073 20.0593C201.185 20.5888 200.151 20.8641 199.098 20.8512C196.238 20.8512 194.642 18.9578 194.642 16.5318" fill="white"/>
<path d="M205.588 13.8538H202.798V12.2916H210.822L210.275 13.8538H207.561V20.6711H205.588V13.8538Z" fill="white"/>
<path d="M215.887 19.3322C216.966 19.3322 217.428 18.9579 217.428 18.1948C217.428 17.4317 216.912 17.0645 215.948 17.0645H214.106V19.3322H215.887ZM215.794 15.8047C216.742 15.8047 217.236 15.452 217.236 14.7249C217.236 13.9978 216.835 13.6451 215.694 13.6451H214.152V15.8047H215.794ZM212.248 12.2989H215.663C218.338 12.2989 219.194 13.4651 219.194 14.5449C219.205 14.9672 219.056 15.3796 218.774 15.7099C218.492 16.0403 218.095 16.2675 217.652 16.3519C218.124 16.4276 218.554 16.6556 218.865 16.9962C219.176 17.3369 219.35 17.7686 219.355 18.2164C219.355 19.3826 218.484 20.6064 215.771 20.6064H212.202V12.2989H212.248Z" fill="white"/>
<path d="M226.64 15.6319C226.64 14.5665 226.054 13.5226 224.782 13.5226C223.51 13.5226 222.886 14.4945 222.871 15.6319H226.64ZM222.886 16.9421C222.859 17.5654 223.098 18.1732 223.55 18.6322C224.002 19.0911 224.631 19.3636 225.299 19.3898H225.561C226.354 19.3904 227.134 19.1941 227.819 18.8211L228.39 20.0809C227.462 20.6093 226.393 20.8791 225.306 20.8583C222.177 20.8583 220.828 18.7851 220.828 16.467C220.828 13.933 222.323 12.0901 224.751 12.0901C227.18 12.0901 228.606 13.789 228.606 16.503V16.9493H222.871L222.886 16.9421Z" fill="white"/>
<path d="M230.571 12.2916H232.545V15.4159H236.337V12.2916H238.311V20.6711H236.337V17.0213H232.545V20.6711H230.571V12.2916Z" fill="white"/>
<path d="M240.677 12.2916H242.651V15.4159H246.443V12.2916H248.424V20.6711H246.443V17.0213H242.651V20.6711H240.677V12.2916Z" fill="white"/>
<path d="M258.777 12.2989H260.766V20.6784H258.792V12.2989H258.777ZM253.689 19.2386C255.3 19.2386 255.609 18.6915 255.609 18.0004C255.609 17.3093 255.231 16.7766 253.689 16.7766C253.38 16.7792 253.071 16.7984 252.764 16.8342V19.2458H253.689V19.2386ZM250.791 12.2989H252.764V15.3728C253.097 15.3365 253.431 15.3173 253.766 15.3152C256.626 15.3152 257.621 16.5534 257.621 17.9572C257.621 19.361 256.726 20.6712 253.766 20.6712H250.745V12.2989H250.791Z" fill="white"/>
<path d="M264.165 8.24585H265.815C265.794 8.43335 265.815 8.62286 265.878 8.80209C265.94 8.98132 266.043 9.14628 266.178 9.28629C266.313 9.42631 266.478 9.53825 266.663 9.61487C266.847 9.69149 267.047 9.73108 267.248 9.73108C267.45 9.73108 267.65 9.69149 267.834 9.61487C268.019 9.53825 268.184 9.42631 268.319 9.28629C268.454 9.14628 268.556 8.98132 268.619 8.80209C268.681 8.62286 268.703 8.43335 268.682 8.24585H270.332C270.37 8.63089 270.315 9.01893 270.173 9.38202C270.031 9.7451 269.804 10.0742 269.509 10.3455C269.214 10.6168 268.858 10.8236 268.467 10.951C268.076 11.0784 267.66 11.1232 267.248 11.0822C265.198 11.0822 264.103 9.8944 264.165 8.24585ZM263.14 12.2988H265.075V16.3734C265.091 16.9647 265.065 17.5563 264.998 18.1444C265.283 17.7052 265.676 17.1149 266.215 16.3878L269.299 12.2988H271.195V20.6784H269.245V16.6038C269.238 16.0126 269.264 15.4216 269.322 14.8329H269.268C269.006 15.2576 268.605 15.8623 268.073 16.5894L264.99 20.6784H263.094V12.2988H263.14Z" fill="white"/>
<path d="M40.3638 32.5926C39.8663 32.5789 39.3724 32.6751 38.9223 32.8734C38.7217 32.9765 38.5565 33.1307 38.446 33.318C38.3355 33.5053 38.2841 33.7181 38.2979 33.9316C38.2789 34.2566 38.3976 34.5755 38.6284 34.8194C38.8593 35.0632 39.1836 35.2124 39.5313 35.2346H39.7317C40.4649 35.2014 41.1593 34.9169 41.682 34.4355V32.5494L40.3638 32.5926ZM41.8438 35.6737C41.501 35.9979 41.093 36.2557 40.6433 36.4324C40.1935 36.6091 39.7109 36.7011 39.223 36.7032C38.862 36.7247 38.5001 36.6795 38.1579 36.5702C37.8157 36.461 37.4999 36.2898 37.2285 36.0665C36.9572 35.8432 36.7356 35.5721 36.5766 35.2688C36.4175 34.9655 36.324 34.6358 36.3014 34.2987C36.3014 34.2172 36.3014 34.1332 36.3014 34.0468C36.2796 33.5725 36.4104 33.103 36.6769 32.6988C36.9434 32.2947 37.3335 31.9743 37.7969 31.7791C38.5243 31.4772 39.3135 31.3273 40.1094 31.34L41.7205 31.2896V30.9368C41.7445 30.7153 41.7131 30.4916 41.6288 30.2834C41.5446 30.0751 41.4097 29.8879 41.2349 29.7365C41.0601 29.5851 40.8501 29.4737 40.6214 29.4109C40.3926 29.3481 40.1514 29.3357 39.9167 29.3747C39.0757 29.3808 38.2513 29.5943 37.5271 29.9938L36.841 28.77C37.868 28.2186 39.0328 27.9306 40.2174 27.9349C42.4374 27.9349 43.6862 28.8924 43.6862 30.9296V34.1548C43.6432 34.9501 43.7001 35.7474 43.8558 36.5304H42.1676L41.8438 35.6737Z" fill="white"/>
<path d="M46.0219 28.1437H52.312L51.7262 29.7779H47.9875V36.5233H46.0219V28.1437Z" fill="white"/>
<path d="M57.0373 35.1626C58.818 35.1626 59.7507 34.0252 59.7507 32.2831C59.7507 30.3466 58.6099 29.4611 56.9294 29.4611C56.5249 29.4575 56.1221 29.5109 55.7346 29.6195V34.8819C56.1436 35.0636 56.5921 35.1548 57.045 35.1483M53.7612 28.4533C54.8032 28.1064 55.9003 27.9263 57.0065 27.9205C60.0899 27.9205 61.7858 29.5835 61.7858 32.2975C61.8255 32.8776 61.7337 33.4591 61.5164 34.0039C61.2991 34.5486 60.9611 35.0445 60.5246 35.4589C60.0881 35.8734 59.5628 36.1972 58.9831 36.4091C58.4035 36.621 57.7825 36.7163 57.1607 36.6888C56.6699 36.6859 56.183 36.6081 55.7192 36.4585V40.7058H53.7458V28.4677L53.7612 28.4533Z" fill="white"/>
<path d="M67.2819 32.5926C66.7845 32.5792 66.2906 32.6753 65.8404 32.8734C65.6398 32.9765 65.4746 33.1307 65.3641 33.318C65.2536 33.5053 65.2022 33.7181 65.216 33.9316C65.2067 34.0943 65.2318 34.257 65.2899 34.4106C65.348 34.5642 65.438 34.7056 65.5547 34.8266C65.6715 34.9476 65.8126 35.046 65.9701 35.116C66.1276 35.186 66.2983 35.2263 66.4725 35.2346H66.6729C67.4088 35.2032 68.1063 34.9185 68.6309 34.4355V32.5494L67.2819 32.5926ZM68.7619 35.6737C68.4191 35.9979 68.0111 36.2557 67.5613 36.4324C67.1116 36.6091 66.6289 36.7011 66.141 36.7032C65.7801 36.7247 65.4182 36.6795 65.076 36.5702C64.7337 36.461 64.4179 36.2898 64.1466 36.0665C63.8753 35.8432 63.6537 35.5721 63.4947 35.2688C63.3356 34.9655 63.2421 34.6358 63.2195 34.2987C63.2195 34.2172 63.2195 34.1332 63.2195 34.0468C63.1977 33.5725 63.3284 33.103 63.595 32.6988C63.8615 32.2947 64.2516 31.9743 64.715 31.7791C65.4424 31.4774 66.2316 31.3276 67.0275 31.34L68.6386 31.2896V30.9368C68.6625 30.7153 68.6312 30.4916 68.5469 30.2834C68.4626 30.0751 68.3278 29.8879 68.153 29.7365C67.9782 29.5851 67.7682 29.4737 67.5395 29.4109C67.3107 29.3481 67.0695 29.3357 66.8348 29.3747C65.9938 29.3811 65.1695 29.5947 64.4452 29.9938L63.7591 28.77C64.7861 28.2186 65.9509 27.9306 67.1354 27.9349C69.3555 27.9349 70.6043 28.8924 70.6043 30.9296V34.1548C70.5614 34.9501 70.6183 35.7474 70.7739 36.5304H69.078L68.7619 35.6737Z" fill="white"/>
<path d="M76.1775 35.1626C77.9582 35.1626 78.8909 34.0252 78.8909 32.2831C78.8909 30.3466 77.7578 29.4611 76.0696 29.4611C75.6651 29.4575 75.2623 29.5109 74.8748 29.6195V34.8819C75.2839 35.0636 75.7323 35.1548 76.1853 35.1483M72.9014 28.4533C73.9434 28.1065 75.0406 27.9264 76.1467 27.9205C79.2301 27.9205 80.926 29.5835 80.926 32.2975C80.9657 32.8776 80.8739 33.4591 80.6566 34.0039C80.4393 34.5486 80.1013 35.0445 79.6648 35.4589C79.2283 35.8734 78.703 36.1972 78.1234 36.4091C77.5437 36.621 76.9227 36.7163 76.3009 36.6888C75.8101 36.6861 75.3232 36.6082 74.8594 36.4585V40.7058H72.9323V28.4677L72.9014 28.4533Z" fill="white"/>
<path d="M82.8531 28.1437H84.8265V31.2608H88.6191V28.1437H90.5925V36.5233H88.6191V32.8734H84.8265V36.5233H82.8531V28.1437Z" fill="white"/>
<path d="M100.953 28.1508H102.926V36.5304H100.953V28.1508ZM95.8728 35.0978C97.4839 35.0978 97.7845 34.5507 97.7845 33.8596C97.7845 33.1685 97.4068 32.6358 95.8728 32.6358C95.561 32.6377 95.2495 32.657 94.9401 32.6933V35.105H95.8728V35.0978ZM92.9744 28.1508H94.9478V31.2104C95.2805 31.1744 95.615 31.1551 95.9499 31.1528C98.8098 31.1528 99.7656 32.391 99.7656 33.7948C99.7656 35.1986 98.8714 36.5088 95.9114 36.5088H92.9744V28.1508Z" fill="white"/>
<path d="M106.341 24.0907H107.991C107.965 24.2803 107.982 24.4729 108.042 24.6557C108.102 24.8384 108.203 25.0071 108.339 25.1506C108.474 25.294 108.64 25.4089 108.827 25.4876C109.013 25.5664 109.216 25.6071 109.42 25.6071C109.625 25.6071 109.827 25.5664 110.014 25.4876C110.201 25.4089 110.367 25.294 110.502 25.1506C110.638 25.0071 110.739 24.8384 110.799 24.6557C110.859 24.4729 110.876 24.2803 110.85 24.0907H112.5C112.537 24.4752 112.481 24.8624 112.338 25.2246C112.196 25.5868 111.969 25.9149 111.674 26.1854C111.379 26.4559 111.024 26.6621 110.633 26.7891C110.243 26.916 109.828 26.9607 109.417 26.9199C107.366 26.9199 106.272 25.7393 106.333 24.0907M105.308 28.1509H107.243V32.2255C107.259 32.8167 107.234 33.4084 107.166 33.9964C107.451 33.5573 107.852 32.967 108.376 32.2399L111.459 28.1509H113.356V36.5304H111.475V32.4559C111.468 31.8647 111.494 31.2736 111.552 30.6849H111.475C111.213 31.1097 110.812 31.7144 110.28 32.4415L107.197 36.5376H105.308V28.1509Z" fill="white"/>
<path d="M124.741 36.9192C123.431 40.2883 121.989 40.7274 120.417 40.7274C119.77 40.7381 119.128 40.6177 118.536 40.3746L119.029 38.9349C119.435 39.1283 119.884 39.2318 120.34 39.2372C121.403 39.2372 122.251 38.5677 122.953 36.5448L118.929 28.1869H121.049L123.839 34.3851L126.059 28.1869H128.11L124.741 36.9192Z" fill="white"/>
<path d="M129.52 28.1437H131.494V31.2608H135.286V28.1437H137.26V36.5233H135.286V32.8734H131.494V36.5233H129.52V28.1437Z" fill="white"/>
<path d="M139.634 28.1508H141.538V32.2254C141.538 32.8949 141.538 33.4852 141.461 33.9963C141.746 33.5572 142.147 32.9669 142.679 32.2398L145.762 28.1508H147.705V36.5304H145.77V32.4558C145.763 31.8646 145.789 31.2735 145.847 30.6848H145.778C145.508 31.1096 145.115 31.7143 144.583 32.4414L141.499 36.5376H139.603V28.1508H139.634Z" fill="white"/>
<path d="M153.725 35.1842C154.804 35.1842 155.267 34.8098 155.267 34.0467C155.267 33.2837 154.758 32.9165 153.787 32.9165H151.945V35.1842H153.725ZM153.617 31.6567C154.565 31.6567 155.059 31.3039 155.059 30.5769C155.059 29.8498 154.666 29.497 153.517 29.497H151.975V31.6567H153.617ZM150.071 28.1508H153.486C156.161 28.1508 157.017 29.3242 157.017 30.4041C157.028 30.8263 156.879 31.2387 156.597 31.5691C156.315 31.8994 155.918 32.1267 155.475 32.211C155.957 32.283 156.396 32.5132 156.712 32.8603C157.029 33.2073 157.202 33.6485 157.202 34.1043C157.202 35.2706 156.331 36.4944 153.617 36.4944H150.033V28.1508H150.071Z" fill="white"/>
<path d="M164.479 31.4768C164.479 30.4113 163.893 29.3675 162.621 29.3675C161.349 29.3675 160.725 30.3393 160.701 31.4768H164.479ZM160.725 32.787C160.699 33.4121 160.941 34.021 161.396 34.4799C161.852 34.9388 162.483 35.2103 163.153 35.2346H163.399C164.193 35.2349 164.972 35.0387 165.658 34.6659L166.244 35.9257C165.316 36.4538 164.247 36.7235 163.16 36.7032C160.031 36.7032 158.682 34.6299 158.682 32.3119C158.682 29.7778 160.223 27.9349 162.605 27.9349C164.987 27.9349 166.46 29.6339 166.46 32.3478V32.7942H160.725V32.787Z" fill="white"/>
<path d="M171.655 35.1626C173.436 35.1626 174.369 34.0252 174.369 32.2831C174.369 30.3466 173.228 29.4611 171.54 29.4611C171.135 29.4575 170.732 29.5109 170.345 29.6195V34.8819C170.754 35.0636 171.202 35.1548 171.655 35.1483M168.371 28.4533C169.413 28.1067 170.51 27.9266 171.617 27.9205C174.7 27.9205 176.396 29.5835 176.396 32.2975C176.436 32.8776 176.344 33.4591 176.127 34.0039C175.909 34.5486 175.571 35.0445 175.135 35.4589C174.698 35.8734 174.173 36.1972 173.593 36.4091C173.014 36.621 172.393 36.7163 171.771 36.6888C171.28 36.6861 170.793 36.6082 170.329 36.4585V40.7058H168.356V28.4677L168.371 28.4533Z" fill="white"/>
<path d="M177.861 32.3982C177.808 31.2662 178.239 30.1612 179.059 29.3257C179.878 28.4902 181.019 27.9925 182.231 27.9421H182.486C183.315 27.9222 184.135 28.1112 184.86 28.4892V30.0658C184.219 29.6541 183.457 29.4378 182.678 29.4467C180.936 29.4467 179.872 30.6849 179.872 32.3262C179.872 34.1476 180.936 35.2058 182.57 35.2058C183.321 35.1997 184.055 35.0058 184.698 34.6443L185.268 35.9185C184.386 36.4479 183.357 36.7256 182.308 36.7176C179.449 36.7176 177.853 34.8243 177.853 32.3982" fill="white"/>
<path d="M186.764 28.1508H188.699V32.2254C188.699 32.8949 188.699 33.4852 188.622 33.9963C188.907 33.5572 189.308 32.9669 189.84 32.2398L192.923 28.1508H194.819V36.5304H192.892V32.4558C192.886 31.8646 192.912 31.2736 192.969 30.6848H192.931C192.669 31.1096 192.268 31.7143 191.736 32.4414L188.652 36.5376H186.764V28.1508Z" fill="white"/>
<path d="M199.236 29.7059H196.446V28.1437H204.47L203.915 29.7059H201.21V36.5233H199.236V29.7059Z" fill="white"/>
<path d="M211.208 31.4768C211.208 30.4113 210.622 29.3675 209.35 29.3675C208.078 29.3675 207.454 30.3393 207.438 31.4768H211.208ZM207.454 32.787C207.426 33.4102 207.665 34.0181 208.118 34.477C208.57 34.9359 209.199 35.2084 209.866 35.2346H210.128C210.922 35.2346 211.701 35.0383 212.387 34.6659L212.973 35.9257C212.045 36.4538 210.976 36.7235 209.889 36.7032C206.76 36.7032 205.411 34.6299 205.411 32.3119C205.411 29.7778 206.906 27.9349 209.334 27.9349C211.763 27.9349 213.189 29.6339 213.189 32.3478V32.7942H207.454V32.787Z" fill="white"/>
<path d="M217.159 29.7059H214.368V28.1437H222.393L221.845 29.7059H219.132V36.5233H217.159V29.7059Z" fill="white"/>
</svg>
